# xmcd
#
# Track frame offsets:
#	150
#	20868
#	33232
#	50197
#	68207
#	79630
#	93084
#	107446
#	122142
#	136528
#	147542
#	164464
#	177737
#
# Disc length: 2563 seconds
#
# Revision: 1
# Processed by: cddbd v1.5.2PL0 Copyright (c) Steve Scherf et al.
# Submitted via: audiograbber 1.83.01
#
DISCID=b40a010d
DTITLE=Jon Weisberger featuring The Lonesome Heirs - I've Been Mostly Awake
DYEAR=2014
DGENRE=Bluegrass
TTITLE0=Dark Cloud Rising
TTITLE1=Now And Then
TTITLE2=Niever Go Back
TTITLE3=Where The Real Love Begins
TTITLE4=ONe Blue Stone
TTITLE5=I Just Came Back To Say Goodbye
TTITLE6=One Mistake At A Time
TTITLE7=Something 'Bout A River
TTITLE8=Everything Is Broken
TTITLE9=Don't Count Me Out
TTITLE10=Let The Wind Be My Friend
TTITLE11=What My Memory Tells Me
TTITLE12=Things That Still Remain
EXTD=
EXTT0=
EXTT1=
EXTT2=
EXTT3=
EXTT4=
EXTT5=
EXTT6=
EXTT7=
EXTT8=
EXTT9=
EXTT10=
EXTT11=
EXTT12=
PLAYORDER=
